<mxfile host="Electron" modified="2023-10-20T20:32:50.189Z" agent="Mozilla/5.0 (Windows NT 10.0; Win64; x64) AppleWebKit/537.36 (KHTML, like Gecko) draw.io/22.0.3 Chrome/114.0.5735.289 Electron/25.8.4 Safari/537.36" etag="b-qofIMbSh9nhF6urV6I" version="22.0.3" type="device">
  <diagram id="C5RBs43oDa-KdzZeNtuy" name="Page-1">
    <mxGraphModel dx="1102" dy="695" grid="1" gridSize="10" guides="1" tooltips="1" connect="1" arrows="1" fold="1" page="1" pageScale="1" pageWidth="827" pageHeight="1169" math="0" shadow="0">
      <root>
        <mxCell id="WIyWlLk6GJQsqaUBKTNV-0" />
        <mxCell id="WIyWlLk6GJQsqaUBKTNV-1" parent="WIyWlLk6GJQsqaUBKTNV-0" />
        <mxCell id="YQz7RViq5xQXz8an_XOR-10" style="edgeStyle=orthogonalEdgeStyle;rounded=0;orthogonalLoop=1;jettySize=auto;html=1;exitX=0.5;exitY=1;exitDx=0;exitDy=0;entryX=0.5;entryY=0;entryDx=0;entryDy=0;" edge="1" parent="WIyWlLk6GJQsqaUBKTNV-1" source="YQz7RViq5xQXz8an_XOR-0" target="YQz7RViq5xQXz8an_XOR-3">
          <mxGeometry relative="1" as="geometry" />
        </mxCell>
        <mxCell id="YQz7RViq5xQXz8an_XOR-0" value="START" style="ellipse;whiteSpace=wrap;html=1;" vertex="1" parent="WIyWlLk6GJQsqaUBKTNV-1">
          <mxGeometry x="200" y="40" width="120" height="80" as="geometry" />
        </mxCell>
        <mxCell id="YQz7RViq5xQXz8an_XOR-1" value="END" style="ellipse;whiteSpace=wrap;html=1;" vertex="1" parent="WIyWlLk6GJQsqaUBKTNV-1">
          <mxGeometry x="200" y="830" width="120" height="80" as="geometry" />
        </mxCell>
        <mxCell id="YQz7RViq5xQXz8an_XOR-11" style="edgeStyle=orthogonalEdgeStyle;rounded=0;orthogonalLoop=1;jettySize=auto;html=1;entryX=0.5;entryY=0;entryDx=0;entryDy=0;" edge="1" parent="WIyWlLk6GJQsqaUBKTNV-1" source="YQz7RViq5xQXz8an_XOR-3" target="YQz7RViq5xQXz8an_XOR-6">
          <mxGeometry relative="1" as="geometry" />
        </mxCell>
        <mxCell id="YQz7RViq5xQXz8an_XOR-3" value="midterm, final, homework" style="rounded=0;whiteSpace=wrap;html=1;" vertex="1" parent="WIyWlLk6GJQsqaUBKTNV-1">
          <mxGeometry x="120" y="170" width="280" height="60" as="geometry" />
        </mxCell>
        <mxCell id="YQz7RViq5xQXz8an_XOR-12" style="edgeStyle=orthogonalEdgeStyle;rounded=0;orthogonalLoop=1;jettySize=auto;html=1;entryX=0.5;entryY=0;entryDx=0;entryDy=0;" edge="1" parent="WIyWlLk6GJQsqaUBKTNV-1" source="YQz7RViq5xQXz8an_XOR-6" target="YQz7RViq5xQXz8an_XOR-7">
          <mxGeometry relative="1" as="geometry" />
        </mxCell>
        <mxCell id="YQz7RViq5xQXz8an_XOR-6" value="OUTPUT&lt;br&gt;midterm, final, homework, lab" style="shape=parallelogram;perimeter=parallelogramPerimeter;whiteSpace=wrap;html=1;fixedSize=1;" vertex="1" parent="WIyWlLk6GJQsqaUBKTNV-1">
          <mxGeometry x="155" y="270" width="210" height="60" as="geometry" />
        </mxCell>
        <mxCell id="YQz7RViq5xQXz8an_XOR-15" style="edgeStyle=orthogonalEdgeStyle;rounded=0;orthogonalLoop=1;jettySize=auto;html=1;" edge="1" parent="WIyWlLk6GJQsqaUBKTNV-1" source="YQz7RViq5xQXz8an_XOR-7" target="YQz7RViq5xQXz8an_XOR-8">
          <mxGeometry relative="1" as="geometry" />
        </mxCell>
        <mxCell id="YQz7RViq5xQXz8an_XOR-19" style="edgeStyle=elbowEdgeStyle;rounded=0;orthogonalLoop=1;jettySize=auto;html=1;entryX=0.5;entryY=0;entryDx=0;entryDy=0;" edge="1" parent="WIyWlLk6GJQsqaUBKTNV-1" source="YQz7RViq5xQXz8an_XOR-7" target="YQz7RViq5xQXz8an_XOR-9">
          <mxGeometry relative="1" as="geometry" />
        </mxCell>
        <mxCell id="YQz7RViq5xQXz8an_XOR-7" value="(20*midterm+40*final+10*homework+30*lab)/100&amp;gt;60" style="rhombus;whiteSpace=wrap;html=1;" vertex="1" parent="WIyWlLk6GJQsqaUBKTNV-1">
          <mxGeometry x="100" y="390" width="320" height="220" as="geometry" />
        </mxCell>
        <mxCell id="YQz7RViq5xQXz8an_XOR-16" style="edgeStyle=orthogonalEdgeStyle;rounded=0;orthogonalLoop=1;jettySize=auto;html=1;entryX=0;entryY=0.5;entryDx=0;entryDy=0;" edge="1" parent="WIyWlLk6GJQsqaUBKTNV-1" source="YQz7RViq5xQXz8an_XOR-8" target="YQz7RViq5xQXz8an_XOR-13">
          <mxGeometry relative="1" as="geometry" />
        </mxCell>
        <mxCell id="YQz7RViq5xQXz8an_XOR-8" value="True&lt;br&gt;" style="text;html=1;strokeColor=none;fillColor=none;align=center;verticalAlign=middle;whiteSpace=wrap;rounded=0;" vertex="1" parent="WIyWlLk6GJQsqaUBKTNV-1">
          <mxGeometry x="500" y="485" width="60" height="30" as="geometry" />
        </mxCell>
        <mxCell id="YQz7RViq5xQXz8an_XOR-20" style="edgeStyle=elbowEdgeStyle;rounded=0;orthogonalLoop=1;jettySize=auto;html=1;entryX=0.5;entryY=0;entryDx=0;entryDy=0;" edge="1" parent="WIyWlLk6GJQsqaUBKTNV-1" source="YQz7RViq5xQXz8an_XOR-9" target="YQz7RViq5xQXz8an_XOR-14">
          <mxGeometry relative="1" as="geometry" />
        </mxCell>
        <mxCell id="YQz7RViq5xQXz8an_XOR-9" value="False&lt;br&gt;" style="text;html=1;strokeColor=none;fillColor=none;align=center;verticalAlign=middle;whiteSpace=wrap;rounded=0;" vertex="1" parent="WIyWlLk6GJQsqaUBKTNV-1">
          <mxGeometry x="230" y="660" width="60" height="30" as="geometry" />
        </mxCell>
        <mxCell id="YQz7RViq5xQXz8an_XOR-18" style="edgeStyle=elbowEdgeStyle;rounded=0;orthogonalLoop=1;jettySize=auto;html=1;entryX=1;entryY=0.5;entryDx=0;entryDy=0;" edge="1" parent="WIyWlLk6GJQsqaUBKTNV-1" source="YQz7RViq5xQXz8an_XOR-13" target="YQz7RViq5xQXz8an_XOR-1">
          <mxGeometry relative="1" as="geometry">
            <Array as="points">
              <mxPoint x="680" y="700" />
            </Array>
          </mxGeometry>
        </mxCell>
        <mxCell id="YQz7RViq5xQXz8an_XOR-13" value="OUTPUT&lt;br&gt;Pass" style="shape=parallelogram;perimeter=parallelogramPerimeter;whiteSpace=wrap;html=1;fixedSize=1;" vertex="1" parent="WIyWlLk6GJQsqaUBKTNV-1">
          <mxGeometry x="620" y="470" width="130" height="60" as="geometry" />
        </mxCell>
        <mxCell id="YQz7RViq5xQXz8an_XOR-21" style="edgeStyle=elbowEdgeStyle;rounded=0;orthogonalLoop=1;jettySize=auto;html=1;entryX=0.5;entryY=0;entryDx=0;entryDy=0;" edge="1" parent="WIyWlLk6GJQsqaUBKTNV-1" source="YQz7RViq5xQXz8an_XOR-14" target="YQz7RViq5xQXz8an_XOR-1">
          <mxGeometry relative="1" as="geometry" />
        </mxCell>
        <mxCell id="YQz7RViq5xQXz8an_XOR-14" value="OUTPUT&lt;br&gt;Fail&lt;br&gt;" style="shape=parallelogram;perimeter=parallelogramPerimeter;whiteSpace=wrap;html=1;fixedSize=1;" vertex="1" parent="WIyWlLk6GJQsqaUBKTNV-1">
          <mxGeometry x="195" y="720" width="130" height="60" as="geometry" />
        </mxCell>
      </root>
    </mxGraphModel>
  </diagram>
</mxfile>
